<svg width="64" height="64" viewBox="0 0 64 64" fill="none" xmlns="http://www.w3.org/2000/svg">
<g clip-path="url(#clip0_348_143040)">
<path d="M32 64.0001C31.6818 64.0001 31.3651 63.9944 31.0491 63.9852L37.5887 46.0121H46.5887C48.1684 46.0121 49.9025 44.7977 50.4427 43.3141L57.5378 23.8258C58.6985 20.6352 56.8709 18.0247 53.4758 18.0247H40.99L30.5137 46.8124H30.5098L24.5708 63.1314C10.4806 59.7814 0 47.1153 0 32.0001C0 17.3208 9.88447 4.95132 23.3604 1.18127L17.2321 18.0247H17.2304L7.04283 46.0121L13.8248 46.0127L22.4887 22.2304H27.5856L18.9217 46.0127L25.701 46.0139L33.7749 23.8258C34.9363 20.6352 33.1087 18.0247 29.7167 18.0247H24.0158L30.5618 0.0336296C31.0388 0.0125185 31.5179 0 32 0C49.6732 0 64 14.3269 64 32.0001C64 49.673 49.6732 64.0001 32 64.0001ZM51.3618 22.2132H46.2664L39.1305 41.7922H44.2261L51.3618 22.2132Z" fill="#024AD8"/>
</g>
<defs>
<clipPath id="clip0_348_143040">
<rect width="64" height="64" fill="white"/>
</clipPath>
</defs>
</svg>
