<svg width="64" height="64" viewBox="0 0 64 64" fill="none" xmlns="http://www.w3.org/2000/svg">
<circle cx="32" cy="32" r="32" fill="#DBA8FF"/>
<ellipse cx="31.951" cy="19.3934" rx="3.39337" ry="3.39339" fill="black"/>
<path d="M21.0438 22.3018L28.5577 25.9375H34.8596L41.8887 22.7865C43.5854 21.817 46.7364 23.2713 43.343 25.4528L35.1019 29.3309V34.9058L38.0105 45.5707C38.7377 47.7522 36.3139 49.2065 35.1019 46.2979L32.1933 36.1177H31.7086H31.4662C30.4967 39.5919 28.5576 45.8616 28.5576 46.0555C27.3457 49.6912 24.6794 47.5098 25.649 45.3283L28.5577 34.9058V29.3309L19.5894 25.2104C18.0381 22.8835 19.9126 22.3018 21.0438 22.3018Z" fill="black" stroke="black"/>
</svg>
